<?xml version="1.0" encoding="UTF-8" standalone="no"?>
<svg
   xmlns:dc="http://purl.org/dc/elements/1.1/"
   xmlns:cc="http://creativecommons.org/ns#"
   xmlns:rdf="http://www.w3.org/1999/02/22-rdf-syntax-ns#"
   xmlns:svg="http://www.w3.org/2000/svg"
   xmlns="http://www.w3.org/2000/svg"
   xmlns:sodipodi="http://sodipodi.sourceforge.net/DTD/sodipodi-0.dtd"
   xmlns:inkscape="http://www.inkscape.org/namespaces/inkscape"
   version="1.1"
   x="0px"
   y="0px"
   viewBox="0 0 96.442192 97"
   enable-background="new 0 0 100 100"
   xml:space="preserve"
   id="svg8"
   sodipodi:docname="empowerment.svg"
   width="96.442192"
   height="97"
   inkscape:version="0.92.1 r15371"><metadata
     id="metadata14"><rdf:RDF><cc:Work
         rdf:about=""><dc:format>image/svg+xml</dc:format><dc:type
           rdf:resource="http://purl.org/dc/dcmitype/StillImage" /><dc:title></dc:title></cc:Work></rdf:RDF></metadata><defs
     id="defs12"><clipPath
       id="clipPath60"
       clipPathUnits="userSpaceOnUse"><path
         inkscape:connector-curvature="0"
         id="path62"
         d="M 0,1080 H 1920 V 0 H 0 Z" /></clipPath><clipPath
       id="clipPath76"
       clipPathUnits="userSpaceOnUse"><path
         inkscape:connector-curvature="0"
         id="path78"
         d="m 1006.33,499.339 h 1.94 v -1.998 h -1.94 z" /></clipPath><clipPath
       id="clipPath76-3"
       clipPathUnits="userSpaceOnUse"><path
         inkscape:connector-curvature="0"
         id="path78-6"
         d="m 1006.33,499.339 h 1.94 v -1.998 h -1.94 z" /></clipPath></defs><sodipodi:namedview
     pagecolor="#ffffff"
     bordercolor="#666666"
     borderopacity="1"
     objecttolerance="10"
     gridtolerance="10"
     guidetolerance="10"
     inkscape:pageopacity="0"
     inkscape:pageshadow="2"
     inkscape:window-width="1920"
     inkscape:window-height="1017"
     id="namedview10"
     showgrid="false"
     fit-margin-top="0"
     fit-margin-left="0"
     fit-margin-right="0"
     fit-margin-bottom="0"
     inkscape:zoom="1.888"
     inkscape:cx="35.858475"
     inkscape:cy="34.470339"
     inkscape:window-x="-8"
     inkscape:window-y="-8"
     inkscape:window-maximized="1"
     inkscape:current-layer="svg8" /><path
     d="m 43.8,71.1 c -1.4,0 -2.5,1.1 -2.5,2.5 0,1.4 1.1,2.5 2.5,2.5 1.4,0 2.5,-1.1 2.5,-2.5 0,-1.4 -1.1,-2.5 -2.5,-2.5 z m 7.7,0 c -1.4,0 -2.5,1.1 -2.5,2.5 0,1.4 1.1,2.5 2.5,2.5 1.4,0 2.5,-1.1 2.5,-2.5 0,-1.4 -1.1,-2.5 -2.5,-2.5 z M 51,56.9 c 0.2,-0.5 0.3,-1 0.3,-1.5 0,-2.1 -1.7,-3.8 -3.8,-3.8 -2.1,0 -3.8,1.7 -3.8,3.8 0,0.6 0.1,1.1 0.4,1.6 -7.9,1.7 -13.9,8.7 -13.9,17.2 0,8 5.4,14.8 12.8,16.9 1,2.5 4.4,5.9 4.4,5.9 0,0 2.9,-3.1 4,-5.6 8,-1.6 14,-8.7 14,-17.2 0,-8.7 -6.2,-15.8 -14.4,-17.3 z m -0.5,29.9 c -0.9,-0.8 -2,-1.3 -3.3,-1.3 -1.1,0 -2.1,0.4 -2.9,1 C 38.9,85 35,80 35,74.1 c 0,-2.5 0.7,-4.8 1.9,-6.7 9.4,1.2 17.8,0.5 22,0 1.2,1.9 1.9,4.2 1.9,6.7 -0.1,6.3 -4.5,11.4 -10.3,12.7 z m -2.9,-63 c 0,-0.2 6.1,-0.2 6.3,-0.4 0.1,-0.4 -2.7,-1.5 -6.4,-1.5 -3.7,0 -6.5,1.2 -6.4,1.5 0.1,0.1 6.5,0.2 6.5,0.4 z m -3.8,-3 c 1.4,0 2.5,-1.1 2.5,-2.5 0,-1.4 -1.1,-2.5 -2.5,-2.5 -1.4,0 -2.5,1.1 -2.5,2.5 0,1.4 1.2,2.5 2.5,2.5 z m 7.7,0 c 1.4,0 2.5,-1.1 2.5,-2.5 0,-1.4 -1.1,-2.5 -2.5,-2.5 -1.4,0 -2.5,1.1 -2.5,2.5 0,1.4 1.2,2.5 2.5,2.5 z m -4,16.4 c 9.7,0 17.6,-7.9 17.6,-17.6 C 65.1,9.9 57.2,2 47.5,2 37.8,2 29.9,9.9 29.9,19.6 c 0,9.7 7.9,17.6 17.6,17.6 z m 0,-30.5 c 7.1,0 12.9,5.8 12.9,12.9 0,7.1 -5.8,12.9 -12.9,12.9 -7.1,0 -12.9,-5.8 -12.9,-12.9 0,-7.1 5.8,-12.9 12.9,-12.9 z M 15.4,43 c -1.4,0 -2.5,1.1 -2.5,2.5 0,1.4 1.1,2.5 2.5,2.5 1.4,0 2.5,-1.1 2.5,-2.5 0,-1.4 -1.1,-2.5 -2.5,-2.5 z M 37,46.1 C 37,39.7 33.5,34 28.4,31 c 0,-2 -0.9,-4.3 -3.2,-7 0,0 -0.8,1 -1.7,2.5 -1,-1.3 -2.5,-2.6 -4.8,-3.8 0,0 -0.5,1.5 -0.7,3.7 -1.9,-1.5 -4.8,-2.2 -9.3,-0.7 0,0 0.6,1.1 1.7,2.5 -2,0 -4.4,0.9 -7.1,3.3 0,0 1.4,1.2 3.7,2.3 C 3.9,37 2,41.3 2,46.1 2,55.8 9.9,63.7 19.6,63.7 29.3,63.7 37,55.8 37,46.1 Z M 19.5,59 C 12.4,59 6.6,53.2 6.6,46.1 6.6,39 12.4,33.2 19.5,33.2 c 0.6,0 1.1,0 1.6,0.1 -0.2,1.8 -0.1,3.7 0.6,5.7 0,0 3,-1.1 5,-3.5 3.4,2.3 5.6,6.2 5.6,10.6 0,7.1 -5.7,12.9 -12.8,12.9 z m 3.7,-16 c -1.4,0 -2.5,1.1 -2.5,2.5 0,1.4 1.1,2.5 2.5,2.5 1.4,0 2.5,-1.1 2.5,-2.5 C 25.6,44.1 24.5,43 23.2,43 Z m 72.500005,18.5 c -1,-1.6 -2.8,-2.3 -4.2,-1.6 -0.3,-1 -0.7,-2.5 -1.2,-4.1 1.6,-2.7 2.6,-5.8 2.6,-9.2 C 92.900005,36.9 85,29 75.3,29 c -1.3,0 -2.7,0.2 -3.9,0.4 -0.1,0 -0.1,0 -0.1,0 0,0 0,0 0,0.1 -7.8,1.8 -13.6,8.8 -13.6,17.1 0,9.7 7.9,17.6 17.6,17.6 4.9,0 9.4,-2 12.600005,-5.3 1.2,0.7 2.2,1.2 3,1.6 -0.8,1 -0.9,2.6 0,4 1,1.7 5.5,3.6 5.5,3.6 0,0 0.3,-4.9 -0.7,-6.6 z M 75.3,59.6 c -7.1,0 -12.9,-5.8 -12.9,-12.9 0,-1.5 0.3,-2.9 0.7,-4.3 0.9,-0.5 2.7,-1.7 4,-3.6 0,0.6 0.1,1.3 0.3,2 0,0 1.5,-0.7 3,-2.1 0.5,1.2 1.3,2.4 2.5,3.5 0,0 0.8,-1.3 1.3,-3.2 1.3,1.1 2.4,1.6 2.4,1.6 0.2,-0.7 0.3,-1.4 0.3,-2.1 1,1.7 2.7,3.3 5.6,4.2 0,0 0.1,-1.6 -0.3,-3.6 2.1,0.9 4.000005,1 4.000005,1 0,0 0,-0.1 0,-0.1 1.2,2 1.9,4.3 1.9,6.7 C 88.200005,53.8 82.4,59.6 75.3,59.6 Z m -3.7,-16 c -1.4,0 -2.5,1.1 -2.5,2.5 0,1.4 1.1,2.5 2.5,2.5 1.4,0 2.5,-1.1 2.5,-2.5 -0.1,-1.4 -1.2,-2.5 -2.5,-2.5 z m 7.7,0 c -1.4,0 -2.5,1.1 -2.5,2.5 0,1.4 1.1,2.5 2.5,2.5 1.4,0 2.5,-1.1 2.5,-2.5 0,-1.4 -1.1,-2.5 -2.5,-2.5 z"
     id="path2"
     style="fill:#c7007c;fill-opacity:1"
     inkscape:connector-curvature="0" /><path
     d="m 41.8,69.1 c -1.4,0 -2.5,1.1 -2.5,2.5 0,1.4 1.1,2.5 2.5,2.5 1.4,0 2.5,-1.1 2.5,-2.5 0,-1.4 -1.1,-2.5 -2.5,-2.5 z m 7.7,0 c -1.4,0 -2.5,1.1 -2.5,2.5 0,1.4 1.1,2.5 2.5,2.5 1.4,0 2.5,-1.1 2.5,-2.5 0,-1.4 -1.1,-2.5 -2.5,-2.5 z M 49,54.9 c 0.2,-0.5 0.3,-1 0.3,-1.5 0,-2.1 -1.7,-3.8 -3.8,-3.8 -2.1,0 -3.8,1.7 -3.8,3.8 0,0.6 0.1,1.1 0.4,1.6 -7.9,1.7 -13.9,8.7 -13.9,17.2 0,8 5.4,14.8 12.8,16.9 1,2.5 4.4,5.9 4.4,5.9 0,0 2.9,-3.1 4,-5.6 8,-1.6 14,-8.7 14,-17.2 0,-8.7 -6.2,-15.8 -14.4,-17.3 z m -0.5,29.9 c -0.9,-0.8 -2,-1.3 -3.3,-1.3 -1.1,0 -2.1,0.4 -2.9,1 C 36.9,83 33,78 33,72.1 c 0,-2.5 0.7,-4.8 1.9,-6.7 9.4,1.2 17.8,0.5 22,0 1.2,1.9 1.9,4.2 1.9,6.7 -0.1,6.3 -4.5,11.4 -10.3,12.7 z m -2.9,-63 c 0,-0.2 6.1,-0.2 6.3,-0.4 0.1,-0.4 -2.7,-1.5 -6.4,-1.5 -3.7,0 -6.5,1.2 -6.4,1.5 0.1,0.1 6.5,0.2 6.5,0.4 z m -3.8,-3 c 1.4,0 2.5,-1.1 2.5,-2.5 0,-1.4 -1.1,-2.5 -2.5,-2.5 -1.4,0 -2.5,1.1 -2.5,2.5 0,1.4 1.2,2.5 2.5,2.5 z m 7.7,0 c 1.4,0 2.5,-1.1 2.5,-2.5 0,-1.4 -1.1,-2.5 -2.5,-2.5 -1.4,0 -2.5,1.1 -2.5,2.5 0,1.4 1.2,2.5 2.5,2.5 z m -4,16.4 c 9.7,0 17.6,-7.9 17.6,-17.6 C 63.1,7.9 55.2,0 45.5,0 35.8,0 27.9,7.9 27.9,17.6 c 0,9.7 7.9,17.6 17.6,17.6 z m 0,-30.5 c 7.1,0 12.9,5.8 12.9,12.9 0,7.1 -5.8,12.9 -12.9,12.9 -7.1,0 -12.9,-5.8 -12.9,-12.9 0,-7.1 5.8,-12.9 12.9,-12.9 z M 13.4,41 c -1.4,0 -2.5,1.1 -2.5,2.5 0,1.4 1.1,2.5 2.5,2.5 1.4,0 2.5,-1.1 2.5,-2.5 0,-1.4 -1.1,-2.5 -2.5,-2.5 z M 35,44.1 C 35,37.7 31.5,32 26.4,29 c 0,-2 -0.9,-4.3 -3.2,-7 0,0 -0.8,1 -1.7,2.5 -1,-1.3 -2.5,-2.6 -4.8,-3.8 0,0 -0.5,1.5 -0.7,3.7 -1.9,-1.5 -4.8,-2.2 -9.3,-0.7 0,0 0.6,1.1 1.7,2.5 -2,0 -4.4,0.9 -7.1,3.3 0,0 1.4,1.2 3.7,2.3 C 1.9,35 0,39.3 0,44.1 0,53.8 7.9,61.7 17.6,61.7 27.3,61.7 35,53.8 35,44.1 Z M 17.5,57 C 10.4,57 4.6,51.2 4.6,44.1 4.6,37 10.4,31.2 17.5,31.2 c 0.6,0 1.1,0 1.6,0.1 -0.2,1.8 -0.1,3.7 0.6,5.7 0,0 3,-1.1 5,-3.5 3.4,2.3 5.6,6.2 5.6,10.6 0,7.1 -5.7,12.9 -12.8,12.9 z m 3.7,-16 c -1.4,0 -2.5,1.1 -2.5,2.5 0,1.4 1.1,2.5 2.5,2.5 1.4,0 2.5,-1.1 2.5,-2.5 C 23.6,42.1 22.5,41 21.2,41 Z m 72.500005,18.5 c -1,-1.6 -2.8,-2.3 -4.2,-1.6 -0.3,-1 -0.7,-2.5 -1.2,-4.1 1.6,-2.7 2.6,-5.8 2.6,-9.2 0,-9.7 -7.90001,-17.6 -17.600008,-17.6 -1.3,0 -2.7,0.2 -3.9,0.4 -0.1,0 -0.1,0 -0.1,0 0,0 0,0 0,0.1 C 61.5,29.3 55.7,36.3 55.7,44.6 c 0,9.7 7.9,17.6 17.599997,17.6 4.9,0 9.399998,-2 12.600008,-5.3 1.2,0.7 2.2,1.2 3,1.6 -0.8,1 -0.9,2.6 0,4 1,1.7 5.5,3.6 5.5,3.6 0,0 0.3,-4.9 -0.7,-6.6 z M 73.299997,57.6 C 66.199997,57.6 60.4,51.8 60.4,44.7 c 0,-1.5 0.3,-2.9 0.7,-4.3 0.9,-0.5 2.7,-1.7 3.999997,-3.6 0,0.6 0.1,1.3 0.3,2 0,0 1.5,-0.7 3,-2.1 0.5,1.2 1.3,2.4 2.5,3.5 0,0 0.8,-1.3 1.3,-3.2 1.3,1.1 2.4,1.6 2.4,1.6 0.2,-0.7 0.3,-1.4 0.3,-2.1 1,1.7 2.7,3.3 5.6,4.2 0,0 0.1,-1.6 -0.3,-3.6 2.099998,0.9 4.000008,1 4.000008,1 0,0 0,-0.1 0,-0.1 1.2,2 1.9,4.3 1.9,6.7 0.1,7.1 -5.700008,12.9 -12.800008,12.9 z m -3.7,-16 c -1.4,0 -2.5,1.1 -2.5,2.5 0,1.4 1.1,2.5 2.5,2.5 1.4,0 2.5,-1.1 2.5,-2.5 -0.1,-1.4 -1.2,-2.5 -2.5,-2.5 z m 7.7,0 c -1.4,0 -2.5,1.1 -2.5,2.5 0,1.4 1.1,2.5 2.5,2.5 1.4,0 2.5,-1.1 2.5,-2.5 0,-1.4 -1.1,-2.5 -2.5,-2.5 z"
     id="path2-3"
     style="fill:#2b0085;fill-opacity:1"
     inkscape:connector-curvature="0" /></svg>