<?xml version="1.0" encoding="UTF-8" standalone="no"?>
<!-- Created with Inkscape (http://www.inkscape.org/) -->

<svg
   xmlns:dc="http://purl.org/dc/elements/1.1/"
   xmlns:cc="http://creativecommons.org/ns#"
   xmlns:rdf="http://www.w3.org/1999/02/22-rdf-syntax-ns#"
   xmlns:svg="http://www.w3.org/2000/svg"
   xmlns="http://www.w3.org/2000/svg"
   xmlns:sodipodi="http://sodipodi.sourceforge.net/DTD/sodipodi-0.dtd"
   xmlns:inkscape="http://www.inkscape.org/namespaces/inkscape"
   id="svg2"
   version="1.1"
   inkscape:version="0.91 r13725"
   xml:space="preserve"
   width="396.80054"
   height="382.74954"
   viewBox="0 0 396.80054 382.74954"
   sodipodi:docname="logo_small.svg"
   inkscape:export-filename="/home/alvaro/Projects/infusion/public/logo_small.png"
   inkscape:export-xdpi="116.15952"
   inkscape:export-ydpi="116.15952"><metadata
     id="metadata8"><rdf:RDF><cc:Work
         rdf:about=""><dc:format>image/svg+xml</dc:format><dc:type
           rdf:resource="http://purl.org/dc/dcmitype/StillImage" /><dc:title></dc:title></cc:Work></rdf:RDF></metadata><defs
     id="defs6"><clipPath
       clipPathUnits="userSpaceOnUse"
       id="clipPath60"><path
         d="m 0,1080 1920,0 L 1920,0 0,0 0,1080 Z"
         id="path62"
         inkscape:connector-curvature="0" /></clipPath><clipPath
       clipPathUnits="userSpaceOnUse"
       id="clipPath76"><path
         d="m 1006.33,499.339 1.94,0 0,-1.998 -1.94,0 0,1.998 z"
         id="path78"
         inkscape:connector-curvature="0" /></clipPath><clipPath
       clipPathUnits="userSpaceOnUse"
       id="clipPath76-3"><path
         d="m 1006.33,499.339 1.94,0 0,-1.998 -1.94,0 0,1.998 z"
         id="path78-6"
         inkscape:connector-curvature="0" /></clipPath></defs><sodipodi:namedview
     pagecolor="#ffffff"
     bordercolor="#666666"
     borderopacity="1"
     objecttolerance="10"
     gridtolerance="10"
     guidetolerance="10"
     inkscape:pageopacity="0"
     inkscape:pageshadow="2"
     inkscape:window-width="1920"
     inkscape:window-height="1017"
     id="namedview4"
     showgrid="false"
     fit-margin-top="40"
     fit-margin-left="100"
     fit-margin-right="100"
     fit-margin-bottom="40"
     inkscape:zoom="0.13791667"
     inkscape:cx="873.2356"
     inkscape:cy="89.652891"
     inkscape:window-x="0"
     inkscape:window-y="0"
     inkscape:window-maximized="1"
     inkscape:current-layer="g10" /><g
     id="g10"
     inkscape:groupmode="layer"
     inkscape:label="Logo infu"
     transform="matrix(1.25,0,0,-1.25,-113.38221,655.42311)"><g
       id="g64"
       transform="translate(285.61227,423.58652)"><path
         d="M 0,0 42.153,42.153 C 14.218,69.732 -26.931,75.864 -60.742,60.552 -58.268,58.213 -34.264,35.455 0,0"
         style="fill:#378eff;fill-opacity:1;fill-rule:nonzero;stroke:none"
         id="path66"
         inkscape:connector-curvature="0" /></g><g
       id="g68"
       transform="translate(218.83683,481.13382)"><path
         d="m 0,0 c -7.579,-4.13 -14.705,-9.396 -21.119,-15.81 -15.36,-15.36 -24.164,-34.789 -26.426,-54.816 2.398,19.708 11.171,38.997 26.392,54.629 C -14.34,-9 -5.647,-3.32 0,0"
         style="fill:#378eff;fill-opacity:1;fill-rule:nonzero;stroke:none"
         id="path70"
         inkscape:connector-curvature="0" /></g><g
       transform="translate(-810.93959,-162.06435)"
       id="g72"><g
         id="g74" /><g
         id="g80"><g
           clip-path="url(#clipPath76-3)"
           id="g82"><g
             transform="translate(1006.332,499.3398)"
             id="g84"><path
               d="m 0,0 c 0.626,-0.673 1.26,-1.341 1.91,-1.999 l 0.026,0.026 -0.519,0.519 C 0.937,-0.975 0.467,-0.488 0,0"
               style="fill:#378eff;fill-opacity:1;fill-rule:nonzero;stroke:none"
               id="path86"
               inkscape:connector-curvature="0" /></g></g></g></g><g
       id="g88"
       transform="translate(285.61227,423.58652)"><path
         d="m 0,0 -88.284,-88.284 c 5.611,-5.611 11.013,-11.005 16.169,-16.148 l 87.924,87.925 C 10.34,-10.745 5.058,-5.234 0,0"
         style="fill:#c7007c;fill-opacity:1;fill-rule:nonzero;stroke:none"
         id="path90"
         inkscape:connector-curvature="0" /></g><g
       id="g92"
       transform="translate(224.87003,484.13822)"><path
         d="m 0,0 c -2.039,-0.924 -4.052,-1.925 -6.033,-3.004 -5.648,-3.32 -14.34,-9 -21.154,-15.997 -15.22,-15.633 -23.994,-34.921 -26.391,-54.629 -2.927,-25.912 5.106,-52.825 24.1,-73.233 0.467,-0.488 0.937,-0.974 1.417,-1.454 l 0.519,-0.518 88.284,88.283 C 26.479,-25.097 2.475,-2.338 0,0"
         style="fill:#2b0085;fill-opacity:1;fill-rule:nonzero;stroke:none"
         id="path94"
         inkscape:connector-curvature="0" /></g><g
       id="g96"
       transform="translate(171.08091,276.73935)"><path
         d="M 0,0 C 28.083,-27.724 69.519,-33.777 103.43,-18.158 101.228,-15.987 77.462,7.454 42.416,42.415 L 0,0 Z"
         style="fill:#378eff;fill-opacity:1;fill-rule:nonzero;stroke:none"
         id="path98"
         inkscape:connector-curvature="0" /></g><g
       id="g100"
       transform="translate(326.12195,361.65434)"><path
         d="m 0,0 c -3.618,16.138 -11.72,31.744 -24.471,45.183 -0.077,0.081 -0.153,0.161 -0.23,0.242 L -112.625,-42.5 c 35.046,-34.961 58.812,-58.402 61.014,-60.573 9.64,4.44 18.674,10.629 26.619,18.573 C -2.049,-61.556 6.279,-29.537 0,0"
         style="fill:#c7007c;fill-opacity:1;fill-rule:nonzero;stroke:none"
         id="path102"
         inkscape:connector-curvature="0" /></g><g
       id="g104"
       transform="translate(326.12195,361.65434)"><path
         d="m 0,0 c -3.618,16.138 -11.72,31.744 -24.471,45.183 -0.077,0.081 -0.153,0.161 -0.23,0.242 L -112.625,-42.5 c 35.046,-34.961 58.812,-58.402 61.014,-60.573 9.64,4.44 18.674,10.629 26.619,18.573 C -2.049,-61.556 6.279,-29.537 0,0"
         style="fill:#2b0085;fill-opacity:1;fill-rule:nonzero;stroke:none"
         id="path106"
         inkscape:connector-curvature="0" /></g></g></svg>