<?xml version="1.0" encoding="UTF-8" standalone="no"?>
<!-- Created with Inkscape (http://www.inkscape.org/) -->

<svg
   xmlns:dc="http://purl.org/dc/elements/1.1/"
   xmlns:cc="http://creativecommons.org/ns#"
   xmlns:rdf="http://www.w3.org/1999/02/22-rdf-syntax-ns#"
   xmlns:svg="http://www.w3.org/2000/svg"
   xmlns="http://www.w3.org/2000/svg"
   xmlns:sodipodi="http://sodipodi.sourceforge.net/DTD/sodipodi-0.dtd"
   xmlns:inkscape="http://www.inkscape.org/namespaces/inkscape"
   id="svg2"
   version="1.1"
   inkscape:version="0.91 r13725"
   xml:space="preserve"
   width="1743.6575"
   height="383.21524"
   viewBox="0 0 1743.6575 383.21524"
   sodipodi:docname="logo_base.svg"><metadata
     id="metadata8"><rdf:RDF><cc:Work
         rdf:about=""><dc:format>image/svg+xml</dc:format><dc:type
           rdf:resource="http://purl.org/dc/dcmitype/StillImage" /><dc:title></dc:title></cc:Work></rdf:RDF></metadata><defs
     id="defs6"><clipPath
       clipPathUnits="userSpaceOnUse"
       id="clipPath60"><path
         d="m 0,1080 1920,0 L 1920,0 0,0 0,1080 Z"
         id="path62"
         inkscape:connector-curvature="0" /></clipPath><clipPath
       clipPathUnits="userSpaceOnUse"
       id="clipPath76"><path
         d="m 1006.33,499.339 1.94,0 0,-1.998 -1.94,0 0,1.998 z"
         id="path78"
         inkscape:connector-curvature="0" /></clipPath></defs><sodipodi:namedview
     pagecolor="#ffffff"
     bordercolor="#666666"
     borderopacity="1"
     objecttolerance="10"
     gridtolerance="10"
     guidetolerance="10"
     inkscape:pageopacity="0"
     inkscape:pageshadow="2"
     inkscape:window-width="1920"
     inkscape:window-height="1017"
     id="namedview4"
     showgrid="false"
     inkscape:zoom="0.39008724"
     inkscape:cx="451.7677"
     inkscape:cy="159.74875"
     inkscape:window-x="0"
     inkscape:window-y="0"
     inkscape:window-maximized="1"
     inkscape:current-layer="g10"
     fit-margin-top="0"
     fit-margin-left="0"
     fit-margin-right="0"
     fit-margin-bottom="0" /><g
     id="g10"
     inkscape:groupmode="layer"
     inkscape:label="Logo infu"
     transform="matrix(1.25,0,0,-1.25,-325.25,898.4665)"><path
       d="m 341.333,412.201 -81.133,0 0,232.947 81.133,0 0,-232.947 z"
       style="fill:#378eff;fill-opacity:1;fill-rule:nonzero;stroke:none"
       id="path12"
       inkscape:connector-curvature="0" /><g
       id="g14"
       transform="translate(370.5786,645.1479)"><path
         d="M 0,0 0.025,-0.031 0.025,0 0,0 Z"
         style="fill:#378eff;fill-opacity:1;fill-rule:nonzero;stroke:none"
         id="path16"
         inkscape:connector-curvature="0" /></g><g
       id="g18"
       transform="translate(553.2505,645.1479)"><path
         d="m 0,0 -101.513,0 0,-103.348 L 0,-232.617 0,0 Z"
         style="fill:#378eff;fill-opacity:1;fill-rule:nonzero;stroke:none"
         id="path20"
         inkscape:connector-curvature="0" /></g><g
       id="g22"
       transform="translate(370.604,412.2012)"><path
         d="m 0,0 81.133,0 0,129.599 L 0,232.915 0,0 Z"
         style="fill:#c7007c;fill-opacity:1;fill-rule:nonzero;stroke:none"
         id="path24"
         inkscape:connector-curvature="0" /></g><g
       id="g26"
       transform="translate(370.604,645.1479)"><path
         d="M 0,0 0,-0.032 81.133,-103.348 81.133,0 0,0 Z"
         style="fill:#2b0085;fill-opacity:1;fill-rule:nonzero;stroke:none"
         id="path28"
         inkscape:connector-curvature="0" /></g><g
       id="g30"
       transform="translate(1655.126,645.1479)"><path
         d="m 0,0 -101.513,0 0,-103.348 L 0,-232.617 0,0 Z"
         style="fill:#378eff;fill-opacity:1;fill-rule:nonzero;stroke:none"
         id="path32"
         inkscape:connector-curvature="0" /></g><g
       id="g34"
       transform="translate(1472.4795,412.2012)"><path
         d="m 0,0 81.134,0 0,129.599 L 0,232.915 0,0 Z"
         style="fill:#c7007c;fill-opacity:1;fill-rule:nonzero;stroke:none"
         id="path36"
         inkscape:connector-curvature="0" /></g><g
       id="g38"
       transform="translate(1472.4795,645.1479)"><path
         d="M 0,0 0,-0.032 81.134,-103.348 81.134,0 0,0 Z"
         style="fill:#2b0085;fill-opacity:1;fill-rule:nonzero;stroke:none"
         id="path40"
         inkscape:connector-curvature="0" /></g><path
       d="m 1249.644,412.201 -81.134,0 0,232.947 81.134,0 0,-232.947 z"
       style="fill:#c7007c;fill-opacity:1;fill-rule:nonzero;stroke:none"
       id="path42"
       inkscape:connector-curvature="0" /><path
       d="m 582.496,412.201 81.133,0 0,65.432 -81.133,0 0,-65.432 z"
       style="fill:#c7007c;fill-opacity:1;fill-rule:nonzero;stroke:none"
       id="path44"
       inkscape:connector-curvature="0" /><path
       d="m 582.496,551.869 81.133,0 0,19.043 -81.133,0 0,-19.043 z"
       style="fill:#c7007c;fill-opacity:1;fill-rule:nonzero;stroke:none"
       id="path46"
       inkscape:connector-curvature="0" /><path
       d="m 750.106,645.148 -86.478,0 0,-74.236 86.478,0 0,74.236 z"
       style="fill:#378eff;fill-opacity:1;fill-rule:nonzero;stroke:none"
       id="path48"
       inkscape:connector-curvature="0" /><path
       d="m 663.629,645.148 -81.133,0 0,-74.236 81.133,0 0,74.236 z"
       style="fill:#2b0085;fill-opacity:1;fill-rule:nonzero;stroke:none"
       id="path50"
       inkscape:connector-curvature="0" /><path
       d="m 750.106,551.869 -86.478,0 0,-74.236 86.478,0 0,74.236 z"
       style="fill:#378eff;fill-opacity:1;fill-rule:nonzero;stroke:none"
       id="path52"
       inkscape:connector-curvature="0" /><path
       d="m 582.496,477.633 81.133,0 0,74.236 -81.133,0 0,-74.236 z"
       style="fill:#2b0085;fill-opacity:1;fill-rule:nonzero;stroke:none"
       id="path54"
       inkscape:connector-curvature="0" /><g
       clip-path="url(#clipPath60)"
       id="g58"
       transform="matrix(1,0,0,0.98662085,0,5.5149261)"><g
         transform="translate(1096.5518,585.6509)"
         id="g64"><path
           inkscape:connector-curvature="0"
           id="path66"
           style="fill:#378eff;fill-opacity:1;fill-rule:nonzero;stroke:none"
           d="M 0,0 42.153,42.153 C 14.218,69.732 -26.931,75.864 -60.742,60.552 -58.268,58.213 -34.264,35.455 0,0" /></g><g
         transform="translate(1029.7764,643.1982)"
         id="g68"><path
           inkscape:connector-curvature="0"
           id="path70"
           style="fill:#378eff;fill-opacity:1;fill-rule:nonzero;stroke:none"
           d="m 0,0 c -7.579,-4.13 -14.705,-9.396 -21.119,-15.81 -15.36,-15.36 -24.164,-34.789 -26.426,-54.816 2.398,19.708 11.171,38.997 26.392,54.629 C -14.34,-9 -5.647,-3.32 0,0" /></g><g
         id="g72"><g
           id="g74" /><g
           id="g80"><g
             id="g82"
             clip-path="url(#clipPath76)"><g
               id="g84"
               transform="translate(1006.332,499.3398)"><path
                 inkscape:connector-curvature="0"
                 id="path86"
                 style="fill:#378eff;fill-opacity:1;fill-rule:nonzero;stroke:none"
                 d="m 0,0 c 0.626,-0.673 1.26,-1.341 1.91,-1.999 l 0.026,0.026 -0.519,0.519 C 0.937,-0.975 0.467,-0.488 0,0" /></g></g></g></g><g
         transform="translate(1096.5518,585.6509)"
         id="g88"><path
           inkscape:connector-curvature="0"
           id="path90"
           style="fill:#c7007c;fill-opacity:1;fill-rule:nonzero;stroke:none"
           d="m 0,0 -88.284,-88.284 c 5.611,-5.611 11.013,-11.005 16.169,-16.148 l 87.924,87.925 C 10.34,-10.745 5.058,-5.234 0,0" /></g><g
         transform="translate(1035.8096,646.2026)"
         id="g92"><path
           inkscape:connector-curvature="0"
           id="path94"
           style="fill:#2b0085;fill-opacity:1;fill-rule:nonzero;stroke:none"
           d="m 0,0 c -2.039,-0.924 -4.052,-1.925 -6.033,-3.004 -5.648,-3.32 -14.34,-9 -21.154,-15.997 -15.22,-15.633 -23.994,-34.921 -26.391,-54.629 -2.927,-25.912 5.106,-52.825 24.1,-73.233 0.467,-0.488 0.937,-0.974 1.417,-1.454 l 0.519,-0.518 88.284,88.283 C 26.479,-25.097 2.475,-2.338 0,0" /></g><g
         transform="translate(982.0205,438.8037)"
         id="g96"><path
           inkscape:connector-curvature="0"
           id="path98"
           style="fill:#378eff;fill-opacity:1;fill-rule:nonzero;stroke:none"
           d="M 0,0 C 28.083,-27.724 69.519,-33.777 103.43,-18.158 101.228,-15.987 77.462,7.454 42.416,42.415 L 0,0 Z" /></g><g
         transform="translate(1137.0615,523.7187)"
         id="g100"><path
           inkscape:connector-curvature="0"
           id="path102"
           style="fill:#c7007c;fill-opacity:1;fill-rule:nonzero;stroke:none"
           d="m 0,0 c -3.618,16.138 -11.72,31.744 -24.471,45.183 -0.077,0.081 -0.153,0.161 -0.23,0.242 L -112.625,-42.5 c 35.046,-34.961 58.812,-58.402 61.014,-60.573 9.64,4.44 18.674,10.629 26.619,18.573 C -2.049,-61.556 6.279,-29.537 0,0" /></g><g
         transform="translate(1137.0615,523.7187)"
         id="g104"><path
           inkscape:connector-curvature="0"
           id="path106"
           style="fill:#2b0085;fill-opacity:1;fill-rule:nonzero;stroke:none"
           d="m 0,0 c -3.618,16.138 -11.72,31.744 -24.471,45.183 -0.077,0.081 -0.153,0.161 -0.23,0.242 L -112.625,-42.5 c 35.046,-34.961 58.812,-58.402 61.014,-60.573 9.64,4.44 18.674,10.629 26.619,18.573 C -2.049,-61.556 6.279,-29.537 0,0" /></g><g
         transform="translate(1451.8438,485.3174)"
         id="g108"><path
           inkscape:connector-curvature="0"
           id="path110"
           style="fill:#378eff;fill-opacity:1;fill-rule:nonzero;stroke:none"
           d="M 0,0 0,5.829 C 0,-4.693 -0.554,-16.558 -3.936,-27.829 -1.419,-19.968 0,-10.767 0,0" /></g><g
         transform="translate(1278.8887,576.6528)"
         id="g112"><path
           inkscape:connector-curvature="0"
           id="path114"
           style="fill:#c7007c;fill-opacity:1;fill-rule:nonzero;stroke:none"
           d="M 0,0 0,-5.83 C 0,4.625 0.554,16.392 3.867,27.595 1.39,19.783 0,10.659 0,0" /></g><g
         transform="translate(1415.2705,420.6143)"
         id="g116"><path
           inkscape:connector-curvature="0"
           id="path118"
           style="fill:#c7007c;fill-opacity:1;fill-rule:nonzero;stroke:none"
           d="M 0,0 C 18.957,8.405 28.158,22.037 32.589,36.689 26.448,17.577 13.924,6.413 0,0" /></g><g
         transform="translate(1372.1563,662.6772)"
         id="g120"><path
           inkscape:connector-curvature="0"
           id="path122"
           style="fill:#378eff;fill-opacity:1;fill-rule:nonzero;stroke:none"
           d="M 0,0 48.325,28.491 -0.512,56.096 0,0 Z" /></g><g
         transform="translate(1414.9883,420.4883)"
         id="g124"><path
           inkscape:connector-curvature="0"
           id="path126"
           style="fill:#378eff;fill-opacity:1;fill-rule:nonzero;stroke:none"
           d="M 0,0 C -8.19,-3.596 -18.18,-6.219 -30.374,-7.54 -20.783,-6.686 -10.037,-4.567 0,0" /></g><g
         transform="translate(1375.2881,649.5918)"
         id="g128"><path
           inkscape:connector-curvature="0"
           id="path130"
           style="fill:#378eff;fill-opacity:1;fill-rule:nonzero;stroke:none"
           d="m 0,0 0,0.029 c -8.454,-0.077 -16.659,0.393 -24.291,-0.221 l 5.83,0.053 0.717,-78.701 15.546,0.142 0.726,-79.673 78.701,0.718 -0.779,85.502 C 75.885,-10.182 28.61,-0.361 0,0" /></g><g
         transform="translate(1315.0527,641.0264)"
         id="g132"><path
           inkscape:connector-curvature="0"
           id="path134"
           style="fill:#c7007c;fill-opacity:1;fill-rule:nonzero;stroke:none"
           d="M 0,0 C 8.157,3.669 18.122,6.384 30.304,7.816 20.722,6.875 9.995,4.658 0,0" /></g><g
         transform="translate(1373.8164,491.2207)"
         id="g136"><path
           inkscape:connector-curvature="0"
           id="path138"
           style="fill:#c7007c;fill-opacity:1;fill-rule:nonzero;stroke:none"
           d="m 0,0 -15.546,-0.142 -0.726,79.673 -78.702,-0.717 0.78,-85.502 c 0.564,-61.97 47.84,-71.791 76.45,-72.152 l 0,-0.029 c 8.453,0.077 16.659,-0.393 24.291,0.222 1.893,0.153 3.737,0.334 5.533,0.545 -4.038,-0.396 -7.875,-0.567 -11.363,-0.599 L 0,0 Z" /></g><g
         transform="translate(1374.5332,412.5195)"
         id="g140"><path
           inkscape:connector-curvature="0"
           id="path142"
           style="fill:#2b0085;fill-opacity:1;fill-rule:nonzero;stroke:none"
           d="m 0,0 c 3.488,0.032 7.325,0.203 11.363,0.6 0.039,0 0.078,0.009 0.108,0.01 12.181,1.432 22.145,4.147 30.303,7.817 0.097,0.04 0.194,0.079 0.281,0.129 13.865,6.539 26.288,17.817 32.254,36.985 0.018,0.058 0.038,0.127 0.046,0.185 3.279,11.301 3.725,23.17 3.628,33.693 L -0.717,78.701 0,0 Z" /></g><g
         transform="translate(1356.8271,649.4526)"
         id="g144"><path
           inkscape:connector-curvature="0"
           id="path146"
           style="fill:#2b0085;fill-opacity:1;fill-rule:nonzero;stroke:none"
           d="m 0,0 -5.83,-0.053 c -1.894,-0.154 -3.738,-0.335 -5.534,-0.546 -0.038,0 -0.077,-0.01 -0.107,-0.011 -12.181,-1.432 -22.146,-4.147 -30.303,-7.816 -0.097,-0.04 -0.194,-0.079 -0.281,-0.129 -18.88,-8.577 -27.957,-22.293 -32.254,-36.986 -0.038,-0.136 -0.085,-0.282 -0.113,-0.418 -3.211,-11.233 -3.657,-23.004 -3.562,-33.459 L 0.717,-78.701 0,0 Z" /></g><path
         inkscape:connector-curvature="0"
         id="path148"
         style="fill:#c7007c;fill-opacity:1;fill-rule:nonzero;stroke:none"
         d="m 873.603,491.147 78.704,0 0,158.38 -78.704,0 0,-158.38 z" /><g
         transform="translate(873.603,412.2031)"
         id="g150"><path
           inkscape:connector-curvature="0"
           id="path152"
           style="fill:#2b0085;fill-opacity:1;fill-rule:nonzero;stroke:none"
           d="m 0,0 c 3.396,0 7.12,0.129 11.038,0.465 12.227,1.286 22.26,3.876 30.484,7.438 14.174,6.368 26.975,17.584 33.199,36.978 3.418,11.323 3.983,23.485 3.983,34.061 L 0,78.945 0,0 Z" /></g><g
         transform="translate(873.603,412.4434)"
         id="g154"><path
           inkscape:connector-curvature="0"
           id="path156"
           style="fill:#378eff;fill-opacity:1;fill-rule:nonzero;stroke:none"
           d="m 0,0 0,0 0,78.704 -15.547,0 0,158.38 -78.704,0 0,-164.21 c 0,-61.975 47.186,-72.223 75.789,-72.842 l 0,-0.032 C -12.12,0 -5.926,-0.303 0,-0.226 L 0,0 Z" /></g></g></g></svg>