<?xml version="1.0" standalone="no"?>
<!DOCTYPE svg PUBLIC "-//W3C//DTD SVG 20010904//EN"
 "http://www.w3.org/TR/2001/REC-SVG-20010904/DTD/svg10.dtd">
<svg version="1.0" xmlns="http://www.w3.org/2000/svg"
 width="512.000000pt" height="512.000000pt" viewBox="0 0 512.000000 512.000000"
 preserveAspectRatio="xMidYMid meet">
<metadata>
Created by potrace 1.11, written by Peter Selinger 2001-2013
</metadata>
<g transform="translate(0.000000,512.000000) scale(0.100000,-0.100000)"
fill="#000000" stroke="none">
<path d="M2655 4508 c-551 -45 -1036 -399 -1250 -913 -18 -44 -39 -101 -46
-125 -7 -25 -14 -49 -16 -55 -1 -5 -13 -55 -24 -110 -29 -134 -32 -408 -6
-545 20 -103 63 -242 98 -318 16 -35 29 -66 29 -69 0 -16 118 -202 169 -266
32 -41 129 -145 215 -231 l157 -156 -342 -342 -342 -342 64 -59 c166 -153 424
-284 654 -333 135 -29 205 -37 331 -36 265 1 527 72 749 203 343 202 591 531
691 919 59 230 58 499 -2 735 -36 139 -126 336 -214 465 -56 82 -97 130 -263
304 -84 87 -153 162 -155 167 -2 5 148 160 334 346 l337 337 -64 59 c-279 258
-702 397 -1104 365z"/>
</g>
</svg>
